<?xml version="1.0" encoding="UTF-8"?>
<svg version="1.1" xmlns="http://www.w3.org/2000/svg" width="2823" height="470">
<path d="M0 0 C1.39904065 93.04696521 -1.19003698 196.21733208 -69 268 C-70.13029167 269.30794571 -71.25543311 270.62036248 -72.375 271.9375 C-80.17329576 280.84983801 -88.68173809 288.70578678 -98 296 C-98.98484375 296.79019531 -99.9696875 297.58039063 -100.984375 298.39453125 C-124.26114498 316.90947621 -150.81558878 330.64013974 -179 340 C-179.82467773 340.28278809 -180.64935547 340.56557617 -181.49902344 340.85693359 C-206.27059056 349.23006607 -233.09095967 351.81330933 -258.9375 354.875 C-260.3040976 355.03924973 -260.3040976 355.03924973 -261.69830322 355.20681763 C-271.84494529 356.41374512 -281.76721158 357.35748753 -292 357 C-287.23570223 342.34778814 -281.72354123 328.04225549 -275.02636719 314.16503906 C-273.37106324 310.67330848 -271.79270965 307.14700628 -270.20092773 303.62597656 C-260.8894494 283.08079807 -250.79159132 263.0877151 -239.48583984 243.56591797 C-238.15552195 241.26857307 -236.83611342 238.96538663 -235.51953125 236.66015625 C-225.39738395 219.06403652 -214.49680771 201.8486776 -202.23828125 185.66210938 C-200.5595845 183.40884292 -198.95423442 181.10738192 -197.34472656 178.80444336 C-191.748058 170.81160305 -185.64827004 163.28055169 -179.44091797 155.75683594 C-177.57782758 153.48526724 -175.75655707 151.18191229 -173.9375 148.875 C-170.77699524 144.91939971 -167.53370132 141.04087173 -164.25 137.1875 C-163.80906006 136.66720215 -163.36812012 136.1469043 -162.91381836 135.61083984 C-153.08686813 124.15207023 -142.54704744 113.3843586 -131.86230469 102.73193359 C-129.73515216 100.61018991 -127.61346439 98.48308509 -125.4921875 96.35546875 C-124.11490417 94.9788456 -122.73731101 93.60253234 -121.359375 92.2265625 C-120.738349 91.60351227 -120.117323 90.98046204 -119.47747803 90.33853149 C-115.14599061 86.02974974 -110.63457088 81.97939808 -106 78 C-105.22539177 77.32608215 -105.22539177 77.32608215 -104.43513489 76.6385498 C-87.34181501 61.77898058 -69.00081051 48.01423533 -50 35.6875 C-49.41839111 35.30819336 -48.83678223 34.92888672 -48.23754883 34.53808594 C-44.2499043 32 -44.2499043 32 -42 32 C-42 31.01 -42 30.02 -42 29 C-53.1142416 32.90180822 -63.60662546 37.45822022 -74 43 C-74.66 43.34933594 -75.32 43.69867188 -76 44.05859375 C-95.01271589 54.19623328 -112.21402912 66.99262018 -128.51806641 81.02050781 C-130.7188503 82.90972935 -132.93158132 84.78243858 -135.16064453 86.63818359 C-143.69352089 93.78189671 -151.66021077 101.37839243 -159.48901367 109.28320312 C-161.45494718 111.26761113 -163.4289848 113.2436814 -165.40429688 115.21875 C-171.47950192 121.31107918 -177.44567132 127.4228031 -183 134 C-184.45445517 135.60768373 -185.91220895 137.21239715 -187.375 138.8125 C-191.24911881 143.10473618 -194.92017548 147.52778674 -198.5546875 152.0234375 C-200.79639551 154.75216195 -203.08363911 157.42982599 -205.39672852 160.09765625 C-210.576744 166.07301874 -215.53121374 172.15060883 -220.3046875 178.45703125 C-222.30524296 181.0999182 -224.33662394 183.71649939 -226.3828125 186.32421875 C-233.03126101 194.79764285 -239.52950648 203.33151521 -245.70654297 212.15478516 C-247.14366405 214.2049477 -248.58884587 216.24927916 -250.03515625 218.29296875 C-252.59337063 221.90850964 -255.14594256 225.52797641 -257.69580078 229.14941406 C-258.78319667 230.69236817 -259.873642 232.23317261 -260.96484375 233.7734375 C-266.12523096 241.08297421 -271.07488322 248.53095059 -276 256 C-276.84425537 257.27979736 -276.84425537 257.27979736 -277.70556641 258.58544922 C-288.13165094 274.41682011 -298.31975194 290.3766072 -307.96875 306.6953125 C-308.63970703 307.82662598 -309.31066406 308.95793945 -310.00195312 310.12353516 C-311.30456157 312.32479063 -312.60047372 314.53002667 -313.88867188 316.73974609 C-314.48228516 317.74344238 -315.07589844 318.74713867 -315.6875 319.78125 C-316.20699219 320.66876953 -316.72648437 321.55628906 -317.26171875 322.47070312 C-319.22881618 325.3329404 -321.48421038 327.61492858 -324 330 C-330.41096299 301.99733299 -335.22453497 275.32331157 -335.3125 246.5 C-335.31644775 245.6089859 -335.32039551 244.7179718 -335.32446289 243.79995728 C-335.35599479 228.95031962 -334.45350564 214.30550259 -331.3125 199.75 C-331.14588867 198.975354 -330.97927734 198.20070801 -330.80761719 197.40258789 C-323.26428692 164.08621256 -307.25826416 135.56969303 -285 110 C-284.30390625 109.16855469 -283.6078125 108.33710938 -282.890625 107.48046875 C-282.28734375 106.76503906 -281.6840625 106.04960937 -281.0625 105.3125 C-280.55847656 104.71050781 -280.05445313 104.10851562 -279.53515625 103.48828125 C-278 102 -278 102 -275.93359375 101.04296875 C-273.48037344 99.71971658 -273.21324379 98.46723085 -272 96 C-269.890625 94.02734375 -269.890625 94.02734375 -267.25 91.9375 C-266.26 91.15117187 -265.27 90.36484375 -264.25 89.5546875 C-263.72019531 89.13928711 -263.19039062 88.72388672 -262.64453125 88.29589844 C-260.98050494 86.9846378 -259.33304496 85.65466834 -257.6875 84.3203125 C-229.16059785 61.32676926 -196.32568497 45.3847683 -162 33 C-160.9598877 32.62133789 -159.91977539 32.24267578 -158.84814453 31.85253906 C-116.19270586 16.48565239 -71.58742846 8.29632298 -26.80078125 2.1640625 C-25.66396408 2.00833267 -25.66396408 2.00833267 -24.50418091 1.84945679 C-22.33716607 1.55743489 -20.16906651 1.27634202 -18 1 C-17.26381439 0.90289734 -16.52762878 0.80579468 -15.76913452 0.70574951 C-10.47659728 0.05258312 -5.33274699 -0.08464678 0 0 Z " fill="#33C271" transform="translate(1731,49)"/>
<path d="M0 0 C24.75 0 49.5 0 75 0 C86.52736053 21.90198501 86.52736053 21.90198501 91.27734375 31.421875 C91.81420303 32.49463684 92.35106232 33.56739868 92.90419006 34.67266846 C94.02328885 36.91019509 95.14140869 39.14821162 96.25854492 41.38671875 C97.92914852 44.73327033 99.60400602 48.07766788 101.27929688 51.421875 C106.25071797 61.36192475 111.17628553 71.31703375 115.9296875 81.36328125 C124.547323 99.53689292 133.6776517 117.46502039 142.68847656 135.44561768 C145.21113987 140.48057015 147.73143521 145.51670766 150.25195312 150.55273438 C155.16570271 160.36962531 160.08200095 170.18523733 165 180 C165.33 180 165.66 180 166 180 C166.25730959 178.77253146 166.25730959 178.77253146 166.51981735 177.52026558 C170.70927235 157.53527967 174.89993057 137.5505464 179.09189987 117.56608772 C181.11914085 107.90143966 183.14598639 98.23670899 185.171875 88.57177734 C186.93928201 80.13999214 188.7074575 71.70836851 190.47652555 63.27693164 C191.41170698 58.81969645 192.3465241 54.3623856 193.2804184 49.90488052 C194.16264521 45.69404671 195.04591314 41.48343253 195.9299202 37.27297211 C196.25112643 35.7422318 196.57197867 34.21141714 196.89241409 32.68051529 C197.041647 31.96764233 197.1908799 31.25476936 197.34463501 30.52029419 C197.53696244 29.60070608 197.53696244 29.60070608 197.73317528 28.66254044 C199.75165004 19.08948207 201.87702498 9.5533876 204 0 C235.35 0 266.7 0 299 0 C291.79219725 34.70597217 284.48948726 69.3906507 277.12574387 104.06380081 C276.23705964 108.24829573 275.34862916 112.43284449 274.4602356 116.61740112 C271.95513907 128.41679166 269.44977565 140.21612542 266.94325256 152.01521301 C263.39051407 168.73954987 259.84042597 185.46444479 256.29427028 202.19017875 C253.34901066 216.08165603 250.40149742 229.9726535 247.45180702 243.86319065 C245.78280422 251.72310277 244.11485461 259.58323522 242.44958496 267.44393921 C241.03344642 274.12862239 239.61512938 280.81283872 238.19402057 287.49646711 C237.46798023 290.9114478 236.74296133 294.32663673 236.02074242 297.74242783 C235.23348799 301.46311367 234.44229494 305.1829414 233.65014648 308.90258789 C233.42433521 309.97441913 233.19852394 311.04625036 232.9658699 312.15056133 C232.74984997 313.16101418 232.53383003 314.17146704 232.31126404 315.21253967 C232.03811701 316.49983774 232.03811701 316.49983774 231.75945187 317.81314182 C230.62536817 322.57205289 229.28721651 327.28020615 228 332 C203.25 332 178.5 332 153 332 C141.65029203 310.43555487 141.65029203 310.43555487 137.16235352 300.89111328 C131.60710118 289.20693714 125.87045373 277.62109813 120.06687737 266.05858994 C118.34281327 262.62357948 116.62150013 259.18720153 114.90077209 255.7505188 C111.24878695 248.4574561 107.59335442 241.1661237 103.9375 233.875 C99.68763193 225.39917716 95.43923598 216.92262231 91.19421577 208.44437027 C89.52170298 205.10569023 87.84673458 201.76825067 86.1716156 198.43087769 C80.07183599 186.26009501 74.09969758 174.03680242 68.26100159 161.73855591 C66.54952359 158.13648735 64.80216624 154.55750321 63 151 C59.02692338 167.87647421 55.29345646 184.79106852 51.7644825 201.76575279 C50.94557386 205.70447756 50.12319872 209.64246536 49.2999115 213.58027649 C47.5509077 221.9486845 45.80652139 230.31805247 44.0625 238.6875 C42.18040461 247.71900441 40.29725152 256.75028437 38.40945429 265.78059894 C37.24882208 271.33354298 36.09355931 276.88759685 34.9403162 282.4420805 C31.46192168 299.0103848 27.73103007 315.47686681 24 332 C-7.02 332 -38.04 332 -70 332 C-68.87500181 321.87501629 -68.87500181 321.87501629 -68.01863098 317.85528564 C-67.82508467 316.93634112 -67.63153835 316.0173966 -67.432127 315.07060528 C-67.22096308 314.08985436 -67.00979916 313.10910345 -66.79223633 312.09863281 C-66.56655031 311.03338033 -66.3408643 309.96812784 -66.10833931 308.87059498 C-65.35370846 305.31387808 -64.59286124 301.75852055 -63.83203125 298.203125 C-63.28734583 295.64212464 -62.74304958 293.08104149 -62.19911194 290.5198822 C-61.02577459 284.99811159 -59.84926457 279.47702477 -58.67059326 273.95639038 C-56.95341479 265.91342248 -55.24115548 257.86941345 -53.53010082 249.82514083 C-50.72616437 236.64333802 -47.91852883 223.46232601 -45.10888672 210.28173828 C-41.1750844 191.82706403 -37.24863371 173.37083004 -33.32396388 154.91421175 C-31.81334537 147.81029532 -30.3025449 140.70641757 -28.79174805 133.60253906 C-28.62782676 132.8317597 -28.46390548 132.06098034 -28.29501688 131.26684403 C-25.90697133 120.03805554 -23.51801822 108.80946047 -21.12817383 97.58105469 C-20.97748503 96.87304395 -20.82679622 96.16503322 -20.67154109 95.43556762 C-19.2037696 88.53931631 -17.73582146 81.64310272 -16.26712316 74.74704874 C-13.73704068 62.86741693 -11.20771366 50.98763758 -8.69093895 39.10517788 C-7.74593498 34.64353726 -6.79982737 30.18213096 -5.85370255 25.72072792 C-5.21337631 22.69853822 -4.57490398 19.67596083 -3.93649292 16.65336609 C-3.55688102 14.86304685 -3.17717724 13.07274709 -2.79736328 11.2824707 C-2.62790318 10.47715471 -2.45844307 9.67183872 -2.28384781 8.84211922 C-1.6437043 5.83258999 -0.97394097 2.92182291 0 0 Z " fill="#1D1D1D" transform="translate(2501,69)"/>
<path d="M0 0 C1.06883926 0.00273422 1.06883926 0.00273422 2.15927124 0.00552368 C14.57831884 0.05862684 26.67749192 0.87922527 38.875 3.3125 C39.71240723 3.47878906 40.54981445 3.64507812 41.41259766 3.81640625 C75.45989157 10.87284022 108.54238381 28.91585584 128.36962891 58.26000977 C142.7659066 80.4203275 151.85869431 105.73488549 152.11328125 132.33203125 C152.1230751 133.1799826 152.13286896 134.02793396 152.14295959 134.90158081 C152.32135096 154.37898674 152.00621114 173.18757052 147.875 192.3125 C147.55354004 193.80402588 147.55354004 193.80402588 147.22558594 195.32568359 C139.04986662 231.86650769 122.09835123 263.76652417 96.875 291.3125 C96.18019531 292.07949219 95.48539063 292.84648437 94.76953125 293.63671875 C71.04860058 318.57151368 38.01953477 333.97079253 4.875 341.3125 C3.78638672 341.5602417 3.78638672 341.5602417 2.67578125 341.81298828 C-20.89751393 346.92864727 -48.60949804 346.400181 -72.125 341.3125 C-72.91003906 341.14621094 -73.69507812 340.97992188 -74.50390625 340.80859375 C-98.11633215 335.62537831 -119.55878428 325.82475797 -138.125 310.3125 C-138.89457031 309.67272217 -138.89457031 309.67272217 -139.6796875 309.02001953 C-166.69156979 286.25016825 -181.15059135 252.95256741 -184.5 218.1875 C-187.68108428 177.81720952 -180.55308619 134.1005444 -161.17089844 98.24804688 C-160.10938143 96.28359617 -159.07452514 94.30640871 -158.0390625 92.328125 C-150.08193799 77.40125639 -139.82889036 64.46310374 -128.125 52.3125 C-127.43535156 51.5596875 -126.74570313 50.806875 -126.03515625 50.03125 C-103.81198633 26.48578014 -72.2158951 11.2238535 -41 4.0625 C-40.34507568 3.91127686 -39.69015137 3.76005371 -39.01538086 3.60424805 C-26.11357531 0.84702618 -13.16301535 -0.07075952 0 0 Z M-50.125 101.3125 C-50.91648437 102.09367187 -51.70796875 102.87484375 -52.5234375 103.6796875 C-76.16946495 128.32133716 -85.70849819 165.6894392 -85.2734375 199.05859375 C-84.32230739 219.90836702 -78.73601665 239.55723675 -63.125 254.3125 C-52.33925489 263.11139732 -39.37035605 266.74399988 -25.5078125 266.16015625 C-3.93093607 263.63724754 12.57799697 251.16452615 25.96484375 234.75 C27.72141576 232.32824086 29.31579905 229.86564414 30.875 227.3125 C31.51824219 226.29027344 32.16148437 225.26804687 32.82421875 224.21484375 C50.56671763 194.77919323 57.19564343 157.29585374 50.09765625 123.625 C46.17257593 108.53112891 38.64706989 95.37124562 25.625 86.4375 C-0.91090445 70.93378787 -29.77009919 80.7282482 -50.125 101.3125 Z " fill="#1D1D1D" transform="translate(2276.125,62.6875)"/>
<path d="M0 0 C1.06883926 0.00273422 1.06883926 0.00273422 2.15927124 0.00552368 C14.57831884 0.05862684 26.67749192 0.87922527 38.875 3.3125 C39.71240723 3.47878906 40.54981445 3.64507812 41.41259766 3.81640625 C75.45989157 10.87284022 108.54238381 28.91585584 128.36962891 58.26000977 C142.7659066 80.4203275 151.85869431 105.73488549 152.11328125 132.33203125 C152.1230751 133.1799826 152.13286896 134.02793396 152.14295959 134.90158081 C152.32135096 154.37898674 152.00621114 173.18757052 147.875 192.3125 C147.55354004 193.80402588 147.55354004 193.80402588 147.22558594 195.32568359 C139.04986662 231.86650769 122.09835123 263.76652417 96.875 291.3125 C96.18019531 292.07949219 95.48539063 292.84648437 94.76953125 293.63671875 C71.04860058 318.57151368 38.01953477 333.97079253 4.875 341.3125 C3.78638672 341.5602417 3.78638672 341.5602417 2.67578125 341.81298828 C-20.89751393 346.92864727 -48.60949804 346.400181 -72.125 341.3125 C-72.91003906 341.14621094 -73.69507813 340.97992188 -74.50390625 340.80859375 C-98.11633215 335.62537831 -119.55878428 325.82475797 -138.125 310.3125 C-138.89457031 309.67272217 -138.89457031 309.67272217 -139.6796875 309.02001953 C-166.69156979 286.25016825 -181.15059135 252.95256741 -184.5 218.1875 C-187.68108428 177.81720952 -180.55308619 134.1005444 -161.17089844 98.24804688 C-160.10938143 96.28359617 -159.07452514 94.30640871 -158.0390625 92.328125 C-150.08193799 77.40125639 -139.82889036 64.46310374 -128.125 52.3125 C-127.43535156 51.5596875 -126.74570312 50.806875 -126.03515625 50.03125 C-103.81198633 26.48578014 -72.2158951 11.2238535 -41 4.0625 C-40.34507568 3.91127686 -39.69015137 3.76005371 -39.01538086 3.60424805 C-26.11357531 0.84702618 -13.16301535 -0.07075952 0 0 Z M-50.125 101.3125 C-50.91648437 102.09367187 -51.70796875 102.87484375 -52.5234375 103.6796875 C-76.16946495 128.32133716 -85.70849819 165.6894392 -85.2734375 199.05859375 C-84.32230739 219.90836702 -78.73601665 239.55723675 -63.125 254.3125 C-52.33925489 263.11139732 -39.37035605 266.74399988 -25.5078125 266.16015625 C-3.93093607 263.63724754 12.57799697 251.16452615 25.96484375 234.75 C27.72141576 232.32824086 29.31579905 229.86564414 30.875 227.3125 C31.51824219 226.29027344 32.16148437 225.26804687 32.82421875 224.21484375 C50.56671763 194.77919323 57.19564343 157.29585374 50.09765625 123.625 C46.17257593 108.53112891 38.64706989 95.37124562 25.625 86.4375 C-0.91090445 70.93378787 -29.77009919 80.7282482 -50.125 101.3125 Z " fill="#1D1D1D" transform="translate(862.125,62.6875)"/>
<path d="M0 0 C1.14339844 0.556875 2.28679687 1.11375 3.46484375 1.6875 C32.07352165 16.38303966 53.16833082 41.46067287 63.3125 71.796875 C67.10625327 84.34973509 68.31902135 96.61150897 68.1875 109.6875 C68.18685547 110.94755859 68.18621094 112.20761719 68.18554688 113.50585938 C68.14094751 122.71810497 68.14094751 122.71810497 67 125 C35.65 125 4.3 125 -28 125 C-28.33 119.72 -28.66 114.44 -29 109 C-31.57014041 95.33767467 -37.394942 83.69576932 -48.53515625 75.02734375 C-62.65429645 65.45883291 -78.07972484 63.35445459 -94.62475586 66.37670898 C-105.76820328 68.75375299 -116.38097538 74.6149767 -125 82 C-125.96164062 82.76699219 -126.92328125 83.53398437 -127.9140625 84.32421875 C-150.24938521 103.01090745 -158.96853178 136.77051859 -161.8190918 164.46557617 C-163.54070214 188.58438453 -163.25714001 213.56354027 -147 233 C-137.94836903 242.75450383 -126.89947444 247.3328874 -113.75390625 248.21875 C-93.61572453 248.75756423 -76.59185714 241.95755392 -61.875 228.375 C-53.94221689 220.05127891 -48.62004967 210.22924019 -44.875 199.44921875 C-44 197 -44 197 -43 196 C-40.04753646 195.90473194 -37.11851579 195.87447548 -34.16577148 195.88647461 C-32.77566864 195.88625557 -32.77566864 195.88625557 -31.35748291 195.8860321 C-28.27866313 195.88673162 -25.19990303 195.89452579 -22.12109375 195.90234375 C-19.99259982 195.90420779 -17.86410547 195.90563176 -15.73561096 195.90663147 C-10.1213768 195.91045772 -4.50716832 195.92028892 1.10705566 195.93133545 C6.83113253 195.94154727 12.55521353 195.9461286 18.27929688 195.95117188 C29.51954256 195.96191109 40.75976915 195.9789888 52 196 C51.85181086 197.75453541 51.70038707 199.50879781 51.54760742 201.26293945 C51.46363205 202.23987259 51.37965668 203.21680573 51.2931366 204.2233429 C47.81871048 237.1339043 26.12098468 268.51022192 1.83984375 289.72265625 C-24.49974004 310.845046 -55.61243998 323.42863681 -89 328 C-89.69762451 328.09571289 -90.39524902 328.19142578 -91.11401367 328.29003906 C-99.48188481 329.27960611 -107.89820848 329.24361365 -116.3125 329.25 C-117.51227982 329.25101212 -117.51227982 329.25101212 -118.73629761 329.25204468 C-131.36469259 329.23515272 -143.61927075 328.70020545 -156 326 C-156.81162598 325.82307617 -157.62325195 325.64615234 -158.45947266 325.46386719 C-181.15865223 320.32493269 -202.1245581 310.9938816 -220 296 C-220.81984375 295.33226562 -221.6396875 294.66453125 -222.484375 293.9765625 C-228.44445047 288.94132633 -233.26919989 283.18576074 -238 277 C-238.60714844 276.20851563 -239.21429688 275.41703125 -239.83984375 274.6015625 C-267.35125905 237.04629716 -268.56231647 188.69157742 -261.78466797 144.35351562 C-253.92587582 96.85942945 -230.9378421 50.1219626 -191.5 21.0625 C-165.84947639 2.86065727 -137.83737359 -7.55587108 -107 -13 C-106.24879883 -13.13422363 -105.49759766 -13.26844727 -104.72363281 -13.40673828 C-69.82607001 -19.28918663 -31.86020514 -15.52921257 0 0 Z " fill="#1D1D1D" transform="translate(588,78)"/>
<path d="M0 0 C77.55 0 155.1 0 235 0 C234.34108473 5.27132218 233.62040927 10.18095868 232.50952148 15.33398438 C232.36071816 16.02880165 232.21191484 16.72361893 232.05860233 17.43949127 C231.58262081 19.65827731 231.10197683 21.87602176 230.62109375 24.09375 C230.32394839 25.47551908 230.02711312 26.85735489 229.73059082 28.23925781 C228.63664059 33.32697893 227.53671784 38.41341437 226.4375 43.5 C223.983125 54.885 221.52875 66.27 219 78 C173.79 78 128.58 78 82 78 C81.34 82.29 80.68 86.58 80 91 C79.39023895 94.1807391 78.76468596 97.34564665 78.08984375 100.51171875 C77.91747696 101.33203079 77.74511017 102.15234283 77.56752014 102.99751282 C77.20875176 104.70077009 76.84827313 106.40366802 76.48608398 108.10620117 C75.93055146 110.72019556 75.38193238 113.33557821 74.83398438 115.95117188 C74.48217393 117.61727267 74.12997515 119.28329152 73.77734375 120.94921875 C73.53201149 122.11936775 73.53201149 122.11936775 73.28172302 123.31315613 C72.11532777 128.76934445 72.11532777 128.76934445 71 131 C113.24 131 155.48 131 199 131 C196.06019535 146.28698417 193.11981194 161.53133449 189.83251953 176.7409668 C189.23247567 179.51862164 188.63748926 182.29733006 188.04296875 185.07617188 C187.65913921 186.86204045 187.27503621 188.64785029 186.890625 190.43359375 C186.62659882 191.66607094 186.62659882 191.66607094 186.35723877 192.92344666 C185.68903967 196.00714732 184.99864178 199.00407465 184 202 C141.76 202 99.52 202 56 202 C54.35 210.25 52.7 218.5 51 227 C49.02 235.91 47.04 244.82 45 254 C89.88 254 134.76 254 181 254 C180.38186669 259.56319977 179.7677052 264.62938383 178.6171875 270.03271484 C178.41455292 270.99306137 178.41455292 270.99306137 178.20782471 271.97280884 C177.76775398 274.05310344 177.32152197 276.13201896 176.875 278.2109375 C176.56461036 279.67055342 176.25455752 281.130241 175.94482422 282.58999634 C175.29856844 285.63137475 174.64946064 288.67212459 173.99804688 291.71240234 C173.16328997 295.60868441 172.33392418 299.5060889 171.50643921 303.40392113 C170.86793939 306.41019856 170.22754934 309.41607061 169.58648682 312.42180252 C169.2799197 313.85944405 168.97372398 315.29716484 168.66790771 316.73496628 C168.24132599 318.73824804 167.81242635 320.74101895 167.3828125 322.74365234 C167.13934082 323.88232758 166.89586914 325.02100281 166.64501953 326.19418335 C166 329 166 329 165 332 C87.45 332 9.9 332 -70 332 C-68.87500181 321.87501629 -68.87500181 321.87501629 -68.01863098 317.85528564 C-67.82508467 316.93634112 -67.63153835 316.0173966 -67.432127 315.07060528 C-67.22096308 314.08985436 -67.00979916 313.10910345 -66.79223633 312.09863281 C-66.56655031 311.03338033 -66.3408643 309.96812784 -66.10833931 308.87059498 C-65.35370846 305.31387808 -64.59286124 301.75852055 -63.83203125 298.203125 C-63.28734583 295.64212464 -62.74304958 293.08104149 -62.19911194 290.5198822 C-61.02577459 284.99811159 -59.84926457 279.47702477 -58.67059326 273.95639038 C-56.95341479 265.91342248 -55.24115548 257.86941345 -53.53010082 249.82514083 C-50.72616437 236.64333802 -47.91852883 223.46232601 -45.10888672 210.28173828 C-41.1750844 191.82706403 -37.24863371 173.37083004 -33.32396388 154.91421175 C-31.81334537 147.81029532 -30.3025449 140.70641757 -28.79174805 133.60253906 C-28.62782676 132.8317597 -28.46390548 132.06098034 -28.29501688 131.26684403 C-25.90697133 120.03805554 -23.51801822 108.80946047 -21.12817383 97.58105469 C-20.97748503 96.87304395 -20.82679622 96.16503322 -20.67154109 95.43556762 C-19.2037696 88.53931631 -17.73582146 81.64310272 -16.26712316 74.74704874 C-13.73704068 62.86741693 -11.20771366 50.98763758 -8.69093895 39.10517788 C-7.74593498 34.64353726 -6.79982737 30.18213096 -5.85370255 25.72072792 C-5.21337631 22.69853822 -4.57490398 19.67596083 -3.93649292 16.65336609 C-3.55688102 14.86304685 -3.17717724 13.07274709 -2.79736328 11.2824707 C-2.62790318 10.47715471 -2.45844307 9.67183872 -2.28384781 8.84211922 C-1.6437043 5.83258999 -0.97394097 2.92182291 0 0 Z " fill="#1D1D1D" transform="translate(93,69)"/>
<path d="M0 0 C32.67 0 65.34 0 99 0 C93.25358764 28.73206178 93.25358764 28.73206178 91.28710938 38.03295898 C90.94099373 39.67778259 90.94099373 39.67778259 90.58788586 41.35583496 C89.84112024 44.90285893 89.09250278 48.44948877 88.34375 51.99609375 C87.80223741 54.56533763 87.26080176 57.13459772 86.71943665 59.70387268 C85.42671822 65.83753243 84.13236758 71.97084662 82.83727688 78.10400587 C81.79209484 83.05368921 80.74751795 88.00349994 79.70321655 92.95336914 C73.35300061 123.05037128 66.98412267 153.14329755 60.55078125 183.22265625 C60.32147604 184.294783 60.09217083 185.36690975 59.85591698 186.47152519 C55.25306651 207.9844059 50.62302733 229.49144733 46 251 C90.22 251.33 134.44 251.66 180 252 C179.36652383 257.70128557 178.7114667 262.89009566 177.52539062 268.43164062 C177.38054733 269.11409851 177.23570404 269.7965564 177.08647156 270.49969482 C176.61411317 272.71950884 176.13541058 274.93789522 175.65625 277.15625 C175.32349191 278.71034876 174.99101774 280.26450834 174.65881348 281.81872559 C173.96564991 285.05685132 173.2693802 288.29428847 172.57080078 291.53125 C171.67404985 295.6874894 170.78471522 299.84527481 169.89759064 304.00357819 C169.21407813 307.20393095 168.52694623 310.40349791 167.83866882 313.60282898 C167.50906148 315.13686736 167.18053736 316.6711389 166.85310364 318.2056427 C166.39725559 320.33907322 165.93661253 322.47141083 165.47460938 324.60351562 C165.2133728 325.81769165 164.95213623 327.03186768 164.6829834 328.28283691 C164 331 164 331 163 332 C160.00384458 332.09800125 157.03073016 332.1299134 154.03416443 332.12025452 C153.0818423 332.12110894 152.12952018 332.12196337 151.14833981 332.12284368 C147.93147546 332.12450139 144.71466234 332.11897238 141.49780273 332.11352539 C139.20211793 332.11324356 136.90643304 332.11340118 134.61074829 332.1139679 C128.35686689 332.11425601 122.10300449 332.10835699 115.84912753 332.10139394 C109.32146217 332.09516276 102.79379642 332.09455679 96.26612854 332.09336853 C85.30282246 332.09060881 74.33952344 332.08435324 63.3762207 332.07543945 C52.08195023 332.0662661 40.78768165 332.05918489 29.4934082 332.05493164 C28.44984733 332.05453756 28.44984733 332.05453756 27.38520443 332.05413551 C23.89518647 332.05283051 20.4051685 332.05156679 16.91515052 332.05032361 C-12.05657095 332.03995007 -41.02828531 332.02225683 -70 332 C-69.50992882 327.24453197 -69.01586995 322.53623918 -68.01863098 317.85528564 C-67.82508467 316.93634112 -67.63153835 316.0173966 -67.432127 315.07060528 C-67.22096308 314.08985436 -67.00979916 313.10910345 -66.79223633 312.09863281 C-66.56655031 311.03338033 -66.3408643 309.96812784 -66.10833931 308.87059498 C-65.35370846 305.31387808 -64.59286124 301.75852055 -63.83203125 298.203125 C-63.28734583 295.64212464 -62.74304958 293.08104149 -62.19911194 290.5198822 C-61.02577459 284.99811159 -59.84926457 279.47702477 -58.67059326 273.95639038 C-56.95341479 265.91342248 -55.24115548 257.86941345 -53.53010082 249.82514083 C-50.72616437 236.64333802 -47.91852883 223.46232601 -45.10888672 210.28173828 C-41.1750844 191.82706403 -37.24863371 173.37083004 -33.32396388 154.91421175 C-31.81334537 147.81029532 -30.3025449 140.70641757 -28.79174805 133.60253906 C-28.62782676 132.8317597 -28.46390548 132.06098034 -28.29501688 131.26684403 C-25.90697133 120.03805554 -23.51801822 108.80946047 -21.12817383 97.58105469 C-20.97748503 96.87304395 -20.82679622 96.16503322 -20.67154109 95.43556762 C-19.2037696 88.53931631 -17.73582146 81.64310272 -16.26712316 74.74704874 C-13.73704068 62.86741693 -11.20771366 50.98763758 -8.69093895 39.10517788 C-7.74593498 34.64353726 -6.79982737 30.18213096 -5.85370255 25.72072792 C-5.21337631 22.69853822 -4.57490398 19.67596083 -3.93649292 16.65336609 C-3.55688102 14.86304685 -3.17717724 13.07274709 -2.79736328 11.2824707 C-2.62790318 10.47715471 -2.45844307 9.67183872 -2.28384781 8.84211922 C-1.6437043 5.83258999 -0.97394097 2.92182291 0 0 Z " fill="#1D1D1D" transform="translate(1088,69)"/>
<path d="M0 0 C72.6 0 145.2 0 220 0 C204 76 204 76 203 78 C157.46 78.495 157.46 78.495 111 79 C108.84984375 89.17070312 106.6996875 99.34140625 104.484375 109.8203125 C103.08210274 116.45257046 101.67981096 123.08482428 100.27734375 129.71704102 C100.09856375 130.56248572 99.91978374 131.40793043 99.73558617 132.27899468 C76.77873882 240.83971702 76.77873882 240.83971702 67.26623535 285.60272217 C66.42360077 289.56793476 65.58175346 293.53331316 64.74060059 297.49884033 C63.77472955 302.05200295 62.80719617 306.60480875 61.83818817 311.15730476 C61.49326765 312.77900014 61.14891357 314.40081611 60.80518341 316.02276421 C60.34699628 318.1842245 59.88669161 320.34522255 59.42578125 322.50610352 C59.04546753 324.29516869 59.04546753 324.29516869 58.6574707 326.12037659 C58 329 58 329 57 332 C24.33 332 -8.34 332 -42 332 C-36.25422759 303.27113794 -36.25422759 303.27113794 -33.96411133 292.4597168 C-33.69936162 291.20447803 -33.43461191 289.94923925 -33.16183949 288.65596294 C-32.45127079 285.28729564 -31.73906775 281.91897603 -31.02647257 278.5507369 C-30.26033849 274.92811091 -29.49570033 271.30516908 -28.73080444 267.68228149 C-27.09621507 259.94171159 -25.45948784 252.20159476 -23.82226181 244.46158218 C-22.80937922 239.67307135 -21.79706883 234.88443964 -20.78482056 230.09579468 C-12.81144091 192.37812303 -4.82753973 154.66269074 3.24444962 116.96597672 C3.81152861 114.31703754 4.37803008 111.66797537 4.94442749 109.01889038 C5.81052437 104.96914743 6.67851658 100.91981589 7.54829025 96.87086105 C7.8573334 95.43131233 8.16585632 93.9916518 8.47380447 92.55186844 C8.88429417 90.63359169 9.2971753 88.71582714 9.71020508 86.7980957 C10.05079704 85.21216362 10.05079704 85.21216362 10.39826965 83.5941925 C11 81 11 81 12 78 C8.04 78 4.08 78 0 78 C0 52.26 0 26.52 0 0 Z " fill="#1D1D1D" transform="translate(1737,69)"/>
<path d="M0 0 C32.67 0 65.34 0 99 0 C93.2556112 28.721944 93.2556112 28.721944 91.01855469 39.23974609 C90.758058 40.47029787 90.49756132 41.70084965 90.2291708 42.96869087 C89.525763 46.29124104 88.82061625 49.61341976 88.11509681 52.93552208 C87.34574047 56.55978186 86.57806905 60.18439863 85.81013489 63.80895996 C84.13945754 71.69276944 82.46662669 79.57612096 80.79332352 87.45937347 C79.74589129 92.39408626 78.69893694 97.32890037 77.65206909 102.26373291 C73.7855746 120.48951051 69.91685304 138.71481432 66.04662097 156.93979859 C63.12342079 170.70548826 60.2028413 184.47173215 57.28369141 198.23828125 C53.8206019 214.56989709 50.35469404 230.90091196 46.88518333 247.23116493 C45.03969071 255.91778618 43.19537815 264.60465413 41.35412598 273.29217529 C39.78821909 280.68044521 38.2197402 288.06816312 36.64785355 295.45516324 C35.84433545 299.23162473 35.04206253 303.00833991 34.24302101 306.78575134 C33.37774313 310.87610459 32.5066912 314.96520583 31.63500977 319.05419922 C31.38023235 320.26307989 31.12545494 321.47196056 30.862957 322.71747398 C30.63023212 323.80448412 30.39750725 324.89149426 30.1577301 326.01144409 C29.95686074 326.95742399 29.75599138 327.90340389 29.54903507 328.87804985 C29 331 29 331 28 332 C24.95597578 332.09530981 21.93468292 332.12551639 18.89038086 332.11352539 C17.93438492 332.11367142 16.97838898 332.11381744 15.99342346 332.1139679 C12.81720755 332.11326835 9.64104948 332.10547403 6.46484375 332.09765625 C4.26908907 332.09579222 2.07333398 332.09436825 -0.12242126 332.09336853 C-5.91420633 332.08954219 -11.7059665 332.07971091 -17.4977417 332.06866455 C-23.40278791 332.05845293 -29.30783813 332.05387145 -35.21289062 332.04882812 C-46.80860472 332.03808875 -58.40430029 332.02101093 -70 332 C-69.35928693 325.24152356 -68.22042502 318.73185574 -66.79223633 312.09863281 C-66.56655031 311.03338033 -66.3408643 309.96812784 -66.10833931 308.87059498 C-65.35370846 305.31387808 -64.59286124 301.75852055 -63.83203125 298.203125 C-63.28734583 295.64212464 -62.74304958 293.08104149 -62.19911194 290.5198822 C-61.02577459 284.99811159 -59.84926457 279.47702477 -58.67059326 273.95639038 C-56.95341479 265.91342248 -55.24115548 257.86941345 -53.53010082 249.82514083 C-50.72616437 236.64333802 -47.91852883 223.46232601 -45.10888672 210.28173828 C-41.1750844 191.82706403 -37.24863371 173.37083004 -33.32396388 154.91421175 C-31.81334537 147.81029532 -30.3025449 140.70641757 -28.79174805 133.60253906 C-28.62782676 132.8317597 -28.46390548 132.06098034 -28.29501688 131.26684403 C-25.90697133 120.03805554 -23.51801822 108.80946047 -21.12817383 97.58105469 C-20.97748503 96.87304395 -20.82679622 96.16503322 -20.67154109 95.43556762 C-19.2037696 88.53931631 -17.73582146 81.64310272 -16.26712316 74.74704874 C-13.73704068 62.86741693 -11.20771366 50.98763758 -8.69093895 39.10517788 C-7.74593498 34.64353726 -6.79982737 30.18213096 -5.85370255 25.72072792 C-5.21337631 22.69853822 -4.57490398 19.67596083 -3.93649292 16.65336609 C-3.55688102 14.86304685 -3.17717724 13.07274709 -2.79736328 11.2824707 C-2.62790318 10.47715471 -2.45844307 9.67183872 -2.28384781 8.84211922 C-1.6437043 5.83258999 -0.97394097 2.92182291 0 0 Z " fill="#1D1D1D" transform="translate(1989,69)"/>
<path d="M0 0 C11.22260673 0.54746957 22.21422182 1.84152781 33.3125 3.5625 C34.15127686 3.69149689 34.99005371 3.82049377 35.85424805 3.95339966 C92.08412845 12.69077016 160.00273831 29.85686436 198.5625 75 C199.036875 75.66 199.51125 76.32 200 77 C198.86606011 80.02582908 197.56770208 82.91740685 196.1171875 85.80078125 C187.62838212 102.7764857 181.50923571 120.50601988 177.7890625 139.125 C176.97497786 143.12288102 176.01421448 147.04897314 175 151 C166.86953956 144.28353268 159.49880918 136.87331564 152.64453125 128.86328125 C150.99601248 126.99548207 149.27696419 125.24544376 147.5 123.5 C145.10722509 121.14966899 142.86808888 118.735776 140.6875 116.1875 C133.2014666 107.55105167 124.96977866 100.05977188 116 93 C115.00226563 92.1853125 114.00453125 91.370625 112.9765625 90.53125 C103.64128456 83.00369141 93.30614353 76.17457607 82 72 C85.35221424 75.39449442 88.7770294 78.672099 92.3125 81.875 C93.27285156 82.74511719 94.23320313 83.61523438 95.22265625 84.51171875 C97.54647589 86.59367811 99.88869485 88.64840023 102.25 90.6875 C108.71237656 96.32069179 114.43756655 102.48868085 120 109 C120.80179688 109.92425781 121.60359375 110.84851563 122.4296875 111.80078125 C130.00163252 120.58082177 137.04744606 129.72529304 144 139 C144.57685547 139.76650879 145.15371094 140.53301758 145.74804688 141.32275391 C149.3024102 146.05437735 152.81337612 150.8144839 156.27587891 155.61376953 C157.42781097 157.20807482 158.58638826 158.7975992 159.75146484 160.38232422 C161.44366522 162.69577862 163.10036191 165.03106893 164.75 167.375 C165.50228882 168.38904907 165.50228882 168.38904907 166.26977539 169.42358398 C170.52805694 175.61117923 171.2238193 181.6386839 172 189 C172.18633029 190.59365764 172.37478011 192.18706838 172.56494141 193.78027344 C173.32128245 200.17847919 174.03804148 206.58104116 174.74731445 212.98461914 C175.90616718 223.41063509 177.14448095 233.7768839 179.06358337 244.09477234 C179.85797171 248.49518938 180.12432934 252.55277942 180 257 C138.34471089 251.09428324 97.49479927 237.25136653 66.23046875 208.078125 C64.18217378 206.16973109 62.07964403 204.36375274 59.9375 202.5625 C18.76186057 166.50287189 4.8030361 111.96669682 1.22415161 59.64065552 C-0.07550932 39.75670842 -0.2379004 19.9195833 0 0 Z " fill="#33C97D" transform="translate(1207,108)"/>
</svg>
